<svg xmlns="http://www.w3.org/2000/svg" xmlns:xlink="http://www.w3.org/1999/xlink" width="100%" height="100%" version="1.1" viewBox="0 0 1024 150" xml:space="preserve" style="fill-rule:evenodd;clip-rule:evenodd;stroke-linejoin:round;stroke-miterlimit:2"><g><path d="M0.03,-0L0.17,-0L0.17,-0.28L0.52,-0.28C0.636,-0.28 0.73,-0.374 0.73,-0.49C0.73,-0.606 0.636,-0.7 0.52,-0.7L0.03,-0.7L0.03,-0ZM0.52,-0.56C0.559,-0.56 0.59,-0.529 0.59,-0.49C0.59,-0.451 0.559,-0.42 0.52,-0.42L0.17,-0.42L0.17,-0.56L0.52,-0.56Z" style="fill:url(#_Linear1);fill-rule:nonzero" transform="matrix(198.387,0,0,198.387,-3.96606,144.338)"/></g><g><path d="M0.31,-0.28C0.465,-0.28 0.59,-0.155 0.59,-0L0.73,-0C0.73,-0.117 0.682,-0.222 0.605,-0.298C0.679,-0.331 0.73,-0.404 0.73,-0.49C0.73,-0.606 0.636,-0.7 0.52,-0.7L0.03,-0.7L0.03,-0L0.17,-0L0.17,-0.28L0.31,-0.28ZM0.52,-0.56C0.559,-0.56 0.59,-0.529 0.59,-0.49C0.59,-0.451 0.559,-0.42 0.52,-0.42L0.17,-0.42L0.17,-0.56L0.52,-0.56Z" style="fill:url(#_Linear2);fill-rule:nonzero" transform="matrix(198.387,0,0,198.387,145.816,144.338)"/></g><g><path d="M0.015,-0.35C0.015,-0.157 0.172,-0 0.365,-0C0.558,-0 0.715,-0.157 0.715,-0.35C0.715,-0.543 0.558,-0.7 0.365,-0.7C0.172,-0.7 0.015,-0.543 0.015,-0.35ZM0.155,-0.35C0.155,-0.466 0.249,-0.56 0.365,-0.56C0.481,-0.56 0.575,-0.466 0.575,-0.35C0.575,-0.234 0.481,-0.14 0.365,-0.14C0.249,-0.14 0.155,-0.234 0.155,-0.35Z" style="fill:url(#_Linear3);fill-rule:nonzero" transform="matrix(198.387,0,0,198.387,296.59,144.338)"/></g><g><path d="M0.365,-0.14C0.249,-0.14 0.155,-0.234 0.155,-0.35C0.155,-0.466 0.249,-0.56 0.365,-0.56L0.715,-0.56L0.715,-0.7L0.365,-0.7C0.172,-0.7 0.015,-0.543 0.015,-0.35C0.015,-0.157 0.172,-0 0.365,-0L0.715,-0L0.715,-0.14L0.365,-0.14Z" style="fill:url(#_Linear4);fill-rule:nonzero" transform="matrix(198.387,0,0,198.387,443.396,144.338)"/></g><g><path d="M0.015,-0.35C0.015,-0.157 0.172,-0 0.365,-0C0.558,-0 0.715,-0.157 0.715,-0.35C0.715,-0.543 0.558,-0.7 0.365,-0.7C0.172,-0.7 0.015,-0.543 0.015,-0.35ZM0.155,-0.35C0.155,-0.466 0.249,-0.56 0.365,-0.56C0.481,-0.56 0.575,-0.466 0.575,-0.35C0.575,-0.234 0.481,-0.14 0.365,-0.14C0.249,-0.14 0.155,-0.234 0.155,-0.35Z" style="fill:url(#_Linear5);fill-rule:nonzero" transform="matrix(198.387,0,0,198.387,581.275,144.338)"/></g><g><path d="M0.03,-0.7L0.03,-0L0.38,-0C0.573,-0 0.73,-0.157 0.73,-0.35C0.73,-0.543 0.573,-0.7 0.38,-0.7L0.03,-0.7ZM0.38,-0.56C0.496,-0.56 0.59,-0.466 0.59,-0.35C0.59,-0.234 0.496,-0.14 0.38,-0.14L0.17,-0.14L0.17,-0.56L0.38,-0.56Z" style="fill:url(#_Linear6);fill-rule:nonzero" transform="matrix(198.387,0,0,198.387,728.081,144.338)"/></g><g><path d="M0.24,-0.7C0.124,-0.7 0.03,-0.606 0.03,-0.49L0.03,-0.21C0.03,-0.094 0.124,-0 0.24,-0L0.73,-0L0.73,-0.14L0.24,-0.14C0.201,-0.14 0.17,-0.171 0.17,-0.21L0.17,-0.28L0.68,-0.28L0.68,-0.42L0.17,-0.42L0.17,-0.49C0.17,-0.529 0.201,-0.56 0.24,-0.56L0.73,-0.56L0.73,-0.7L0.24,-0.7Z" style="fill:url(#_Linear7);fill-rule:nonzero" transform="matrix(198.387,0,0,198.387,877.863,144.338)"/></g><defs><linearGradient id="_Linear1" x1="0" x2="1" y1="0" y2="0" gradientTransform="matrix(0.37773,-0.014643,0.014643,0.37773,0.191135,-0.346339)" gradientUnits="userSpaceOnUse"><stop offset="0" style="stop-color:#04539c;stop-opacity:1"/><stop offset="1" style="stop-color:#02a0ce;stop-opacity:1"/></linearGradient><linearGradient id="_Linear2" x1="0" x2="1" y1="0" y2="0" gradientTransform="matrix(0.385052,0.0073215,-0.0073215,0.385052,0.180153,-0.342678)" gradientUnits="userSpaceOnUse"><stop offset="0" style="stop-color:#04539c;stop-opacity:1"/><stop offset="1" style="stop-color:#02a0ce;stop-opacity:1"/></linearGradient><linearGradient id="_Linear3" x1="0" x2="1" y1="0" y2="0" gradientTransform="matrix(0.410677,0,0,0.410677,0.161492,-0.342679)" gradientUnits="userSpaceOnUse"><stop offset="0" style="stop-color:#04539c;stop-opacity:1"/><stop offset="1" style="stop-color:#02a0ce;stop-opacity:1"/></linearGradient><linearGradient id="_Linear4" x1="0" x2="1" y1="0" y2="0" gradientTransform="matrix(0.502195,0,0,0.502195,0.161492,-0.35)" gradientUnits="userSpaceOnUse"><stop offset="0" style="stop-color:#04539c;stop-opacity:1"/><stop offset="1" style="stop-color:#02a0ce;stop-opacity:1"/></linearGradient><linearGradient id="_Linear5" x1="0" x2="1" y1="0" y2="0" gradientTransform="matrix(0.407016,0.00366068,-0.00366068,0.407016,0.168813,-0.360982)" gradientUnits="userSpaceOnUse"><stop offset="0" style="stop-color:#04539c;stop-opacity:1"/><stop offset="1" style="stop-color:#02a0ce;stop-opacity:1"/></linearGradient><linearGradient id="_Linear6" x1="0" x2="1" y1="0" y2="0" gradientTransform="matrix(0.344109,-0.00732136,0.00732136,0.344109,0.217693,-0.366897)" gradientUnits="userSpaceOnUse"><stop offset="0" style="stop-color:#04539c;stop-opacity:1"/><stop offset="1" style="stop-color:#02a0ce;stop-opacity:1"/></linearGradient><linearGradient id="_Linear7" x1="0" x2="1" y1="0" y2="0" gradientTransform="matrix(0.432641,-0.00366068,0.00366068,0.432641,0.202117,-0.342679)" gradientUnits="userSpaceOnUse"><stop offset="0" style="stop-color:#04539c;stop-opacity:1"/><stop offset="1" style="stop-color:#02a0ce;stop-opacity:1"/></linearGradient></defs></svg>