<svg width="29" height="26" viewBox="0 0 29 26" fill="none" xmlns="http://www.w3.org/2000/svg">
<g clip-path="url(#clip0_19_16)">
<path d="M2.28247 14.0732V7.16436L14.5752 0.97736V7.88625L2.28247 14.0732Z" fill="#AFD7F6"/>
<path d="M15.76 0.97736V7.88625L28.0528 14.0739V7.16436L15.76 0.97736Z" fill="#AFD7F6"/>
<path d="M2.28247 7.16436V14.0732L14.5752 20.2609V13.352L2.28247 7.16436Z" fill="white"/>
<path d="M28.0528 7.16436V14.0732L15.76 20.2609V13.352L28.0528 7.16436Z" fill="white"/>
<path d="M23.5768 16.9293V22.5587H6.38182V16.9293H3.95361V22.5587V25.0226H6.38182H23.5768H26.005V22.5587V16.9293H23.5768Z" fill="white"/>
<path d="M1.74309 7.68918C1.74309 7.4341 1.53931 7.22731 1.28793 7.22731C1.03655 7.22731 0.832764 7.4341 0.832764 7.68918V20.8562C0.832764 21.1113 1.03655 21.3181 1.28793 21.3181C1.53931 21.3181 1.74309 21.1113 1.74309 20.8562V7.68918Z" fill="white"/>
<path d="M1.38504 24.8263C2.14998 24.8263 2.77008 24.197 2.77008 23.4208C2.77008 22.6446 2.14998 22.0154 1.38504 22.0154C0.620104 22.0154 0 22.6446 0 23.4208C0 24.197 0.620104 24.8263 1.38504 24.8263Z" fill="white"/>
</g>
<defs>
<clipPath id="clip0_19_16">
<rect width="28.0528" height="24.0453" fill="white" transform="translate(0 0.97736)"/>
</clipPath>
</defs>
</svg>
